<svg width="9" height="15" viewBox="0 0 9 15" fill="none" xmlns="http://www.w3.org/2000/svg">
<path d="M4.95155 13.3618V14.4216C4.95155 14.7401 4.69372 14.9998 4.37332 14.9998C4.04913 15.015 3.77423 14.7666 3.75906 14.4424C3.75906 14.4367 3.75906 14.4291 3.75906 14.4235V13.3826C2.44334 13.3409 1.18639 12.8328 0.208127 11.9532C0.0735213 11.8129 -0.000417048 11.6309 -0.000417048 11.4394C-0.00610461 11.0014 0.329462 10.6355 0.767404 10.6052C0.939927 10.609 1.10676 10.6678 1.24137 10.7758C1.9561 11.3768 2.8263 11.7598 3.75148 11.883V8.09699C1.99781 7.62303 0.17021 7.02583 0.17021 4.87783C0.17021 3.12606 1.61864 1.81034 3.74958 1.65867V0.578033C3.75338 0.253842 4.02069 -0.00399456 4.34488 -0.000202852C4.35057 -0.000202852 4.35815 -0.000202852 4.36384 -0.000202852C4.68234 -0.000202852 4.94208 0.257633 4.94208 0.578033V1.69469C6.03409 1.75725 7.07491 2.17624 7.9053 2.88718C8.0399 3.02368 8.11384 3.20758 8.11384 3.39906C8.11005 3.84459 7.74604 4.2048 7.29862 4.2048C7.16022 4.20291 7.02562 4.1612 6.90997 4.08157C6.33553 3.64173 5.6625 3.34977 4.94966 3.23033V6.56325C6.70143 7.03721 8.57643 7.71782 8.57643 9.95303C8.57832 11.6195 7.5375 13.1912 4.95155 13.3618ZM3.75906 3.16398C2.65188 3.24929 1.92198 3.8844 1.92198 4.76408C1.92198 5.64376 2.72772 5.95657 3.75906 6.25991V3.16398ZM4.95155 8.45531V11.902C6.35259 11.7313 6.84551 10.8801 6.84551 10.1597C6.85499 9.16625 6.02082 8.75864 4.95155 8.45531Z" fill="#FF715B"/>
</svg>
