<svg width="20" height="24" viewBox="0 0 20 24" fill="none" xmlns="http://www.w3.org/2000/svg">
<path fill-rule="evenodd" clip-rule="evenodd" d="M9.45 23.83C9.61 23.94 9.81 24 10 24C10.19 24 10.39 23.94 10.55 23.83C10.94 23.58 20 17.45 20 10C20 4.49 15.51 0 10 0C4.49 0 0 4.49 0 10C0 17.45 9.06 23.58 9.45 23.83ZM2 10C2 5.59 5.59 2 10 2C14.41 2 18 5.59 18 10C18 15.41 11.9 20.36 10 21.77C8.1 20.36 2 15.41 2 10ZM6 10C6 12.21 7.79 14 10 14C12.21 14 14 12.21 14 10C14 7.79 12.21 6 10 6C7.79 6 6 7.79 6 10ZM8 10C8 8.9 8.9 8 10 8C11.1 8 12 8.9 12 10C12 11.1 11.1 12 10 12C8.9 12 8 11.1 8 10Z" fill="#FF715B"/>
</svg>
